<svg width="201" height="280" viewBox="0 0 201 280" fill="none" xmlns="http://www.w3.org/2000/svg">
<g clip-path="url(#clip0_2519_11045)">
<path fill-rule="evenodd" clip-rule="evenodd" d="M101.496 223.435C77.5067 228.828 50.2454 240.765 40.1963 260.92C30.1472 281.075 -3.71628e-05 291.151 0 260.92C3.71629e-05 230.689 60.2944 49.3093 80.3926 19.0792C100.491 -11.1509 120.589 -1.07411 120.589 19.0779C120.589 27.3005 109.714 62.6008 96.8391 101.513C107.628 108.464 127.067 113.752 141.614 117.025C140.108 110.913 140.542 104.481 142.855 98.6276C145.167 92.7743 149.244 87.7919 154.514 84.3758C159.785 80.9597 165.988 79.2806 172.255 79.5727C178.523 79.8649 184.543 82.1138 189.476 86.0055C194.409 89.8972 198.007 95.2374 199.769 101.281C201.531 107.324 201.369 113.768 199.305 119.715C197.241 125.661 193.378 130.812 188.256 134.448C183.134 138.085 177.008 140.026 170.734 140L165.914 140C140.809 139.966 95.4237 118.436 95.4237 118.436L90.736 119.795C73.5265 170.933 55.2699 222.024 55.2699 222.024C76.1405 207.998 100.69 200.494 125.814 200.46H130.638C136.917 200.434 143.048 202.375 148.174 206.011C153.3 209.648 157.166 214.799 159.231 220.745C161.297 226.692 161.459 233.136 159.696 239.179C157.932 245.223 154.331 250.563 149.395 254.455C144.458 258.346 138.433 260.595 132.161 260.887C125.888 261.179 119.681 259.5 114.406 256.084C109.131 252.668 105.052 247.686 102.737 241.832C100.423 235.979 99.9887 229.547 101.496 223.435Z" fill="url(#paint0_linear_2519_11045)"/>
</g>
<defs>
<linearGradient id="paint0_linear_2519_11045" x1="10.0491" y1="2.56598e-06" x2="161.578" y2="241.703" gradientUnits="userSpaceOnUse">
<stop stop-color="white"/>
</linearGradient>
<clipPath id="clip0_2519_11045">
<rect width="200.982" height="280" fill="white"/>
</clipPath>
</defs>
</svg>
